<svg width="138" height="82" viewBox="0 0 138 82" fill="none" xmlns="http://www.w3.org/2000/svg">
<g opacity="0.4" filter="url(#filter0_d_1_299)">
<rect x="20" y="10" width="98" height="42" rx="21" fill="#1DA1F2"/>
<path d="M56.9795 27.1157H53.7129V36H51.5156V27.1157H48.293V25.3359H56.9795V27.1157ZM64.6406 33.1216L65.6807 28.0752H67.7241L65.7026 36H63.9302L62.4287 31.0122L60.9272 36H59.1621L57.1406 28.0752H59.1841L60.2168 33.1143L61.667 28.0752H63.1978L64.6406 33.1216ZM72.4263 36.1465C71.2642 36.1465 70.3169 35.79 69.5845 35.0771C68.8569 34.3643 68.4932 33.4146 68.4932 32.228V32.0229C68.4932 31.2271 68.647 30.5166 68.9546 29.8916C69.2622 29.2617 69.6968 28.7783 70.2583 28.4414C70.8247 28.0996 71.4692 27.9287 72.1919 27.9287C73.2759 27.9287 74.1279 28.2705 74.748 28.9541C75.373 29.6377 75.6855 30.6069 75.6855 31.8618V32.7261H70.6392C70.7075 33.2437 70.9126 33.6587 71.2544 33.9712C71.6011 34.2837 72.0381 34.4399 72.5654 34.4399C73.3809 34.4399 74.0181 34.1445 74.4771 33.5537L75.5171 34.7183C75.1997 35.1675 74.77 35.519 74.228 35.7729C73.686 36.022 73.0854 36.1465 72.4263 36.1465ZM72.1846 29.6426C71.7646 29.6426 71.4229 29.7842 71.1592 30.0674C70.9004 30.3506 70.7344 30.7559 70.6611 31.2832H73.6055V31.1147C73.5957 30.646 73.4688 30.2847 73.2246 30.0308C72.9805 29.772 72.6338 29.6426 72.1846 29.6426ZM80.5415 36.1465C79.3794 36.1465 78.4321 35.79 77.6997 35.0771C76.9722 34.3643 76.6084 33.4146 76.6084 32.228V32.0229C76.6084 31.2271 76.7622 30.5166 77.0698 29.8916C77.3774 29.2617 77.812 28.7783 78.3735 28.4414C78.9399 28.0996 79.5845 27.9287 80.3071 27.9287C81.3911 27.9287 82.2432 28.2705 82.8633 28.9541C83.4883 29.6377 83.8008 30.6069 83.8008 31.8618V32.7261H78.7544C78.8228 33.2437 79.0278 33.6587 79.3696 33.9712C79.7163 34.2837 80.1533 34.4399 80.6807 34.4399C81.4961 34.4399 82.1333 34.1445 82.5923 33.5537L83.6323 34.7183C83.3149 35.1675 82.8853 35.519 82.3433 35.7729C81.8013 36.022 81.2007 36.1465 80.5415 36.1465ZM80.2998 29.6426C79.8799 29.6426 79.5381 29.7842 79.2744 30.0674C79.0156 30.3506 78.8496 30.7559 78.7764 31.2832H81.7207V31.1147C81.7109 30.646 81.584 30.2847 81.3398 30.0308C81.0957 29.772 80.749 29.6426 80.2998 29.6426ZM87.5435 26.127V28.0752H88.8984V29.6279H87.5435V33.583C87.5435 33.876 87.5996 34.0859 87.7119 34.2129C87.8242 34.3398 88.0391 34.4033 88.3564 34.4033C88.5908 34.4033 88.7983 34.3862 88.979 34.3521V35.9561C88.564 36.083 88.1367 36.1465 87.6973 36.1465C86.2129 36.1465 85.4561 35.397 85.4268 33.8979V29.6279H84.2695V28.0752H85.4268V26.127H87.5435Z" fill="white"/>
</g>
<defs>
<filter id="filter0_d_1_299" x="0" y="0" width="138" height="82" filterUnits="userSpaceOnUse" color-interpolation-filters="sRGB">
<feFlood flood-opacity="0" result="BackgroundImageFix"/>
<feColorMatrix in="SourceAlpha" type="matrix" values="0 0 0 0 0 0 0 0 0 0 0 0 0 0 0 0 0 0 127 0" result="hardAlpha"/>
<feOffset dy="10"/>
<feGaussianBlur stdDeviation="10"/>
<feColorMatrix type="matrix" values="0 0 0 0 0 0 0 0 0 0 0 0 0 0 0 0 0 0 0.08 0"/>
<feBlend mode="normal" in2="BackgroundImageFix" result="effect1_dropShadow_1_299"/>
<feBlend mode="normal" in="SourceGraphic" in2="effect1_dropShadow_1_299" result="shape"/>
</filter>
</defs>
</svg>
